<svg width="84" height="20" viewBox="0 0 84 20" fill="none" xmlns="http://www.w3.org/2000/svg">
<path d="M2.66801 8.4665C2.43358 8.23178 2.43358 7.85122 2.66801 7.6165L8.61067 1.6665L17.1002 1.6665L6.91277 11.8665C6.67834 12.1012 6.29825 12.1012 6.06382 11.8665L2.66801 8.4665Z" fill="url(#paint0_linear_89_1719)"/>
<path d="M13.386 6.44776L17.1002 10.1665V18.6665L9.14127 10.6978L13.386 6.44776Z" fill="url(#paint1_linear_89_1719)"/>
<path d="M68.0439 6.48926C68.7894 6.48926 69.4145 6.67162 69.918 7.03613C70.0229 7.1104 70.1214 7.19167 70.2158 7.27734V6.70801H71.748V14.96C71.748 15.1592 71.7381 15.3495 71.7188 15.5293C71.7042 15.7138 71.6774 15.8935 71.6387 16.0684C71.5225 16.5786 71.2998 16.9967 70.9707 17.3223C70.6415 17.6528 70.2321 17.8982 69.7432 18.0586C69.2592 18.2189 68.7222 18.2998 68.1318 18.2998C67.6962 18.2998 67.2768 18.2318 66.875 18.0957C66.4782 17.9596 66.1202 17.7624 65.8008 17.5049C65.4813 17.2522 65.2199 16.9456 65.0166 16.5859L66.6289 15.7842C66.7789 16.0708 66.9888 16.2829 67.2598 16.4189C67.5356 16.5599 67.8289 16.6299 68.1387 16.6299C68.5016 16.6299 68.8258 16.5638 69.1113 16.4326C69.3969 16.3063 69.6176 16.117 69.7725 15.8643C69.9321 15.6165 70.0077 15.3057 69.998 14.9316V14.1807C69.9665 14.2046 69.9359 14.23 69.9033 14.2529C69.3855 14.6174 68.7441 14.7997 67.9795 14.7998C67.2582 14.7998 66.6281 14.6174 66.0908 14.2529C65.5537 13.8884 65.137 13.3924 64.8418 12.7656C64.5467 12.1388 64.3994 11.4317 64.3994 10.6445C64.3994 9.84749 64.5465 9.13771 64.8418 8.51562C65.1419 7.88866 65.5663 7.39579 66.1133 7.03613C66.6601 6.67175 67.3036 6.48933 68.0439 6.48926ZM38 6.48926C38.6099 6.48926 39.1496 6.58392 39.6191 6.77344C40.0935 6.96299 40.4762 7.23307 40.7666 7.58301C41.0569 7.93282 41.2359 8.34325 41.3037 8.81445L39.5176 9.13574C39.474 8.80049 39.3218 8.53521 39.0605 8.34082C38.804 8.14645 38.46 8.03702 38.0293 8.0127C37.6178 7.98839 37.2859 8.05149 37.0342 8.20215C36.7825 8.34795 36.6562 8.55496 36.6562 8.82227C36.6563 8.97282 36.708 9.10114 36.8096 9.20801C36.9112 9.31492 37.114 9.42239 37.4189 9.5293C37.7288 9.63622 38.1889 9.76733 38.7988 9.92285C39.4232 10.0832 39.9222 10.2676 40.2949 10.4766C40.6722 10.6806 40.9428 10.9264 41.1074 11.2129C41.2768 11.4996 41.3623 11.8476 41.3623 12.2559C41.3623 13.048 41.074 13.6701 40.498 14.1221C39.9268 14.5741 39.1348 14.7998 38.123 14.7998C37.1551 14.7997 36.3687 14.5809 35.7637 14.1436C35.1587 13.7062 34.7909 13.0918 34.6602 12.2998L36.4463 12.0225C36.5383 12.4112 36.7411 12.7178 37.0557 12.9414C37.3703 13.165 37.7678 13.2764 38.2471 13.2764C38.6681 13.2763 38.9922 13.1935 39.2197 13.0283C39.4521 12.8582 39.5684 12.6275 39.5684 12.3359C39.5684 12.1562 39.5245 12.0132 39.4375 11.9062C39.3552 11.7945 39.1713 11.687 38.8857 11.585C38.6001 11.4829 38.1618 11.3537 37.5713 11.1982C36.9131 11.0233 36.3901 10.8369 36.0029 10.6377C35.6158 10.4336 35.3374 10.1929 35.168 9.91602C34.9985 9.63898 34.9141 9.30286 34.9141 8.90918C34.9141 8.41844 35.0423 7.99041 35.2988 7.62598C35.5553 7.26171 35.9135 6.98244 36.373 6.78809C36.8329 6.58882 37.3755 6.48926 38 6.48926ZM53.8047 6.48926C54.5937 6.48926 55.2815 6.66669 55.8672 7.02148C56.4527 7.37625 56.9072 7.86732 57.2314 8.49414C57.5558 9.11623 57.7187 9.83291 57.7188 10.6445C57.7188 11.461 57.5537 12.1826 57.2246 12.8096C56.9003 13.4317 56.4451 13.9206 55.8594 14.2754C55.2737 14.6252 54.5888 14.7998 53.8047 14.7998C53.0205 14.7998 52.3357 14.6224 51.75 14.2676C51.1643 13.9128 50.7091 13.4247 50.3848 12.8027C50.0653 12.1758 49.9053 11.4562 49.9053 10.6445C49.9053 9.81833 50.0703 9.09377 50.3994 8.47168C50.7286 7.84977 51.1859 7.36353 51.7715 7.01367C52.3572 6.66378 53.0351 6.48926 53.8047 6.48926ZM77.2471 6.48926C78.0603 6.48926 78.75 6.6815 79.3164 7.06543C79.8876 7.44448 80.312 7.98088 80.5879 8.67578C80.8638 9.37074 80.9672 10.19 80.8994 11.1328H75.2256C75.2843 11.6981 75.449 12.1526 75.7227 12.4961C76.0711 12.9335 76.5792 13.1523 77.2471 13.1523C77.6779 13.1523 78.0486 13.0577 78.3584 12.8682C78.673 12.6738 78.9146 12.3938 79.084 12.0293L80.8125 12.5547C80.5124 13.2643 80.0473 13.8163 79.418 14.21C78.7936 14.6034 78.1036 14.7998 77.3486 14.7998C76.5549 14.7998 75.858 14.6273 75.2578 14.2822C74.6576 13.9372 74.1875 13.459 73.8486 12.8467C73.5147 12.2344 73.3477 11.5294 73.3477 10.7324C73.3477 9.87224 73.5127 9.12593 73.8418 8.49414C74.171 7.85749 74.6282 7.3636 75.2139 7.01367C75.7995 6.66378 76.4775 6.4893 77.2471 6.48926ZM23.8301 14.5811H22.0801V4.08301H23.8301V14.5811ZM30.1152 6.48145C30.6959 6.4815 31.1753 6.57908 31.5527 6.77344C31.9301 6.96779 32.2305 7.2154 32.4531 7.5166C32.6758 7.81793 32.8398 8.13928 32.9463 8.47949C33.0528 8.81971 33.1213 9.14303 33.1504 9.44922C33.1843 9.75043 33.2012 9.99605 33.2012 10.1855V14.5811H31.4287V10.79C31.4287 10.5423 31.4118 10.2679 31.3779 9.9668C31.344 9.66546 31.2645 9.37566 31.1387 9.09863C31.0177 8.8169 30.8337 8.586 30.5869 8.40625C30.3449 8.22648 30.0157 8.13677 29.5996 8.13672C29.3769 8.13672 29.1563 8.17319 28.9385 8.24609C28.7206 8.319 28.5219 8.44517 28.3428 8.625C28.1685 8.79996 28.0284 9.04347 27.9219 9.35449C27.8154 9.66063 27.7617 10.0542 27.7617 10.5352V14.5811H25.9902V6.70801H27.5518V7.58398C27.7521 7.34773 27.986 7.1427 28.2559 6.9707C28.7593 6.64507 29.3794 6.48145 30.1152 6.48145ZM49.248 5.83984H44.7021V8.45703H48.376V10.207H44.7021V14.5811H42.9521V4.08301H49.248V5.83984ZM63.0137 6.67871C63.2606 6.65927 63.501 6.66913 63.7334 6.70801V8.34863C63.501 8.28059 63.2317 8.25793 62.9268 8.28223C62.6267 8.30655 62.3553 8.39232 62.1133 8.53809C61.8715 8.66927 61.6733 8.83704 61.5186 9.04102C61.3686 9.24502 61.2572 9.47798 61.1846 9.74023C61.112 9.99782 61.0752 10.2778 61.0752 10.5791V14.5811H59.3184V6.70801H60.8652V7.9668C60.9243 7.86084 60.9888 7.75922 61.0605 7.66309C61.2251 7.44438 61.4219 7.26399 61.6494 7.12305C61.8429 6.99196 62.0559 6.89023 62.2881 6.81738C62.5251 6.73967 62.767 6.69332 63.0137 6.67871ZM68.3057 8.06348C67.8362 8.0635 67.4485 8.1808 67.1436 8.41406C66.8389 8.64242 66.6139 8.9533 66.4688 9.34668C66.3235 9.73548 66.251 10.1683 66.251 10.6445C66.251 11.1257 66.3215 11.5634 66.4619 11.957C66.6071 12.3457 66.8269 12.6544 67.1221 12.8828C67.4174 13.1112 67.793 13.2256 68.248 13.2256C68.7174 13.2255 69.0953 13.1181 69.3809 12.9043C69.6711 12.6856 69.8811 12.3818 70.0117 11.9932C70.1473 11.6043 70.2158 11.1549 70.2158 10.6445C70.2158 10.1294 70.1473 9.67984 70.0117 9.2959C69.881 8.90715 69.6753 8.60543 69.3945 8.3916C69.1138 8.17311 68.7508 8.06348 68.3057 8.06348ZM53.8047 8.13672C53.3351 8.13672 52.9475 8.24319 52.6426 8.45703C52.3425 8.66602 52.1198 8.96075 51.9746 9.33984C51.8295 9.714 51.7568 10.1489 51.7568 10.6445C51.7568 11.4076 51.9288 12.0178 52.2725 12.4746C52.621 12.9266 53.1318 13.1523 53.8047 13.1523C54.5017 13.1523 55.0196 12.9187 55.3584 12.4521C55.6971 11.9856 55.8672 11.3832 55.8672 10.6445C55.8672 9.88167 55.6951 9.27422 55.3516 8.82227C55.0079 8.36541 54.4921 8.13672 53.8047 8.13672ZM77.3203 8.02734C76.6039 8.02734 76.0712 8.2511 75.7227 8.69824C75.4987 8.98242 75.3476 9.35192 75.2676 9.80664H79.1221C79.0589 9.29398 78.9236 8.89783 78.7139 8.61816C78.4186 8.22457 77.9543 8.02742 77.3203 8.02734Z" fill="white"/>
<defs>
<linearGradient id="paint0_linear_89_1719" x1="2.35901" y1="1.92279" x2="24.8074" y2="9.63869" gradientUnits="userSpaceOnUse">
<stop stop-color="white"/>
<stop offset="1" stop-color="white" stop-opacity="0.4"/>
</linearGradient>
<linearGradient id="paint1_linear_89_1719" x1="26.1477" y1="8.65322" x2="11.2903" y2="8.65322" gradientUnits="userSpaceOnUse">
<stop stop-color="white"/>
<stop offset="1" stop-color="white" stop-opacity="0.4"/>
</linearGradient>
</defs>
</svg>
